<svg viewBox="0 0 599 342" version="1.1" xmlns="http://www.w3.org/2000/svg" xmlns:xlink="http://www.w3.org/1999/xlink" class="logo transition" data-v-71a315af=""><title data-v-71a315af="">Group</title><defs data-v-71a315af=""><polygon id="path-1" points="0.06 0.757 555.793 0.757 555.793 243.037 0.06 243.037" data-v-71a315af=""/></defs><g id="Page-1" stroke="none" stroke-width="1" fill="none" fill-rule="evenodd" data-v-71a315af=""><g id="Group" data-v-71a315af=""><g id="Group-18" transform="translate(0.000000, 41.264000)" data-v-71a315af=""><mask id="mask-2" fill="white" data-v-71a315af=""><use xlink:href="#path-1" data-v-71a315af=""/></mask><g id="Clip-16" data-v-71a315af=""/><path d="M107.297,83.69 C97.461,102.692 78.684,114.762 56.779,114.762 C25.261,114.762 0,89.278 0,57.759 C0,26.018 25.93,0.757 57.002,0.757 C75.556,0.757 93.663,10.373 104.168,26.241 L85.615,26.241 C75.332,12.381 61.026,3.886 47.615,3.886 C26.825,3.886 13.637,22.889 13.637,45.69 C13.637,79.668 38.897,111.41 66.168,111.41 C83.155,111.41 94.332,99.339 98.133,83.69 L107.297,83.69" id="Fill-17" fill="#000105" mask="url(#mask-2)" data-v-71a315af=""/></g><path d="M173.245,24.363 C173.245,12.739 164.304,2.906 154.468,2.906 C145.305,2.906 137.033,11.847 137.033,30.398 L137.033,57.672 C143.74,51.637 149.998,47.164 158.269,44.481 C167.882,40.906 173.245,33.527 173.245,24.363 Z M207.446,142.389 L219.519,154.91 L181.963,154.91 L194.035,142.389 L194.035,81.142 C194.035,60.354 179.506,46.048 163.635,46.048 C153.35,46.048 146.197,51.414 137.033,59.908 L137.033,142.389 L149.103,154.91 L111.549,154.91 L123.622,142.389 L123.622,33.75 C123.622,12.07 136.138,-1.42108547e-14 149.998,-1.42108547e-14 C163.635,-1.42108547e-14 174.809,10.726 174.809,24.363 C174.809,32.411 170.788,39.116 164.081,43.365 C184.871,40.46 207.446,53.199 207.446,82.035 L207.446,142.389 L207.446,142.389 Z" id="Fill-19" fill="#000105" data-v-71a315af=""/><path d="M316.536,154.91 L310.053,154.91 L302.676,138.591 C292.171,148.424 281.886,155.356 267.357,155.356 C248.58,155.356 230.249,142.389 230.249,116.682 L230.249,59.234 L218.18,51.185 L243.663,43.142 L243.663,117.356 C243.663,138.367 258.193,152.227 273.841,152.227 C284.792,152.227 293.958,145.072 303.122,135.684 L303.122,59.234 L291.053,51.185 L316.536,43.142 L316.536,154.91" id="Fill-20" fill="#000105" data-v-71a315af=""/><path d="M428.976,142.389 L441.048,154.91 L403.495,154.91 L415.565,142.389 L415.565,80.249 C415.565,59.457 401.258,45.601 385.611,45.601 C374.657,45.601 365.493,52.529 356.329,62.14 L356.329,142.389 L368.398,154.91 L330.845,154.91 L342.915,142.389 L342.915,59.457 L330.845,51.414 L356.329,43.365 L356.329,59.681 C367.952,48.731 377.565,42.468 392.094,42.468 C410.871,42.468 428.976,55.435 428.976,81.142 L428.976,142.389" id="Fill-21" fill="#000105" data-v-71a315af=""/><path d="M535.834,150.884 C520.856,150.884 511.244,167.649 506.327,177.711 C513.926,186.875 525.103,193.133 538.068,192.017 C549.469,191.12 555.729,183.746 556.622,174.582 C557.74,162.284 549.246,150.884 535.834,150.884 Z M535.609,105.058 C535.609,78.013 511.692,46.94 485.313,46.494 C467.655,46.271 455.585,60.801 455.585,80.026 C455.585,112.214 481.738,138.813 506.103,138.813 C523.539,138.813 535.609,124.954 535.609,105.058 Z M569.587,169.217 C569.587,183.746 555.729,195.146 539.633,195.146 C527.117,195.146 514.375,190.227 505.432,179.496 C498.278,193.133 488.219,201.85 472.797,201.85 C457.149,201.85 444.854,190.674 444.854,177.487 C444.854,165.636 452.677,155.579 473.913,149.991 L500.515,143.063 C498.727,143.286 497.163,143.286 495.372,143.286 C466.313,143.286 444.854,119.588 444.854,92.543 C444.854,64.376 466.983,42.021 495.372,42.021 C505.88,42.021 516.386,45.15 524.657,51.414 L552.821,35.764 L552.821,52.975 L529.797,52.975 L529.797,55.212 C540.528,65.268 546.34,77.79 546.34,92.319 C546.34,116.459 530.022,136.131 508.114,142.389 L473.467,152.227 C458.266,156.472 449.101,164.074 449.101,174.582 C449.101,182.853 456.477,186.651 465.867,186.651 C498.727,186.651 514.821,146.192 544.103,146.192 C559.081,146.192 569.587,155.803 569.587,169.217 L569.587,169.217 Z" id="Fill-22" fill="#000105" data-v-71a315af=""/><path d="M568.027,17.435 C568.027,11.847 572.497,7.374 578.086,7.374 C583.675,7.374 588.145,11.847 588.145,17.435 C588.145,23.024 583.675,27.492 578.086,27.492 C572.497,27.492 568.027,23.024 568.027,17.435 Z M586.581,142.389 L598.651,154.91 L561.097,154.91 L573.167,142.389 L573.167,59.234 L561.097,51.185 L586.581,43.142 L586.581,142.389 L586.581,142.389 Z" id="Fill-23" fill="#000105" data-v-71a315af=""/><path d="M134.707,285.599 L100.283,294.54 C89.106,297.446 77.482,305.718 77.482,315.997 C77.482,324.268 84.636,328.067 96.259,328.067 C114.366,328.067 129.342,311.078 138.509,293.642 L134.707,285.599 Z M163.767,182.995 L190.368,182.995 L178.298,195.512 L144.767,276.877 L144.767,294.764 L139.178,294.764 C130.907,325.612 117.272,341.48 99.388,341.48 C84.636,341.48 73.682,332.763 73.682,319.349 C73.682,307.503 84.189,297 99.614,292.973 L134.038,284.032 L92.907,195.512 L80.834,182.995 L121.073,182.995 L109.001,195.512 L144.32,271.963 L175.839,195.512 L163.767,182.995 L163.767,182.995 Z" id="Fill-24" fill="#000105" data-v-71a315af=""/><path d="M251.843,292.304 C271.292,292.304 286.044,275.538 286.044,250.277 C286.044,217.643 260.787,185.455 233.961,185.455 C214.513,185.455 199.76,202.216 199.76,227.476 C199.76,260.116 225.021,292.304 251.843,292.304 Z M242.679,181.875 C274.644,181.875 299.682,208.256 299.682,238.431 C299.682,271.065 273.526,295.879 243.125,295.879 C211.161,295.879 186.123,269.503 186.123,239.323 C186.123,206.689 212.279,181.875 242.679,181.875 L242.679,181.875 Z" id="Fill-25" fill="#000105" data-v-71a315af=""/><path d="M377.922,292.304 C397.371,292.304 412.123,275.538 412.123,250.277 C412.123,217.643 386.866,185.455 360.04,185.455 C340.592,185.455 325.839,202.216 325.839,227.476 C325.839,260.116 351.1,292.304 377.922,292.304 Z M368.758,181.875 C400.723,181.875 425.76,208.256 425.76,238.431 C425.76,271.065 399.605,295.879 369.204,295.879 C337.24,295.879 312.203,269.503 312.203,239.323 C312.203,206.689 338.358,181.875 368.758,181.875 L368.758,181.875 Z" id="Fill-26" fill="#000105" data-v-71a315af=""/></g></g></svg>